<svg width="197" height="197" viewBox="0 0 197 197" fill="none" xmlns="http://www.w3.org/2000/svg">
<path d="M98.501 61.6208V103.177M111.447 9.76646L124.131 20.5763C127.327 23.2997 131.295 24.9462 135.481 25.2802L152.093 26.6042C161.86 27.3836 169.618 35.1367 170.398 44.9039L171.718 61.5193C172.052 65.7048 173.705 69.6785 176.428 72.8742L187.233 85.5554C193.588 93.013 193.589 103.983 187.234 111.44L176.429 124.124C173.706 127.319 172.056 131.294 171.722 135.48L170.392 152.093C169.613 161.86 161.867 169.618 152.1 170.397L135.482 171.723C131.296 172.057 127.324 173.699 124.129 176.423L111.447 187.233C103.989 193.588 93.0128 193.589 85.5553 187.234L72.8733 176.424C69.6776 173.7 65.7059 172.055 61.5204 171.721L44.902 170.397C35.1349 169.618 27.389 161.862 26.6096 152.094L25.2805 135.481C24.9465 131.296 23.2963 127.324 20.5729 124.128L9.76792 111.441C3.41268 103.983 3.4097 93.017 9.76494 85.5594L20.5797 72.8723C23.3031 69.6766 24.9374 65.7048 25.2714 61.5193L26.6004 44.9059C27.3798 35.1387 35.1482 27.3826 44.9152 26.6031L61.5153 25.2791C65.7008 24.9451 69.6744 23.3 72.8701 20.5766L85.5563 9.76646C93.0138 3.41118 103.989 3.41118 111.447 9.76646ZM99.0184 134.345V135.384L97.9836 135.38V134.345H99.0184Z" stroke="#E2E1DF" stroke-width="10" stroke-linecap="round" stroke-linejoin="round"/>
</svg>
