<?xml version="1.0" encoding="UTF-8"?>
<svg id="Layer_1" data-name="Layer 1" xmlns="http://www.w3.org/2000/svg" viewBox="0 0 510.34 483.51">
  <defs>
    <style>
      .cls-1 {
        fill: #fff;
      }

      .cls-2 {
        fill: #231f20;
      }
    </style>
  </defs>
  <path class="cls-2" d="m222.72,76c-.92,49.81-49.05,85.63-96.68,67.13-27.27-10.22-46.36-37.99-46.55-67.13-1.1-53.74,53.37-92.56,102.91-68.93,25.72,12.53,41,40.98,40.32,68.93h0Zm-1.57,0c-.46-35.85-32.85-61.56-67.31-60.26-32.47.6-61.45,27.19-61.82,60.26-.74,45.35,44.64,75.63,86.76,60.2,25.16-8.76,43.13-33.28,42.37-60.2h0Z"/>
  <path class="cls-2" d="m405.62,411.44c-.92,49.81-49.05,85.63-96.68,67.13-27.27-10.22-46.36-37.99-46.55-67.13-1.1-53.74,53.37-92.56,102.91-68.93,25.72,12.53,41,40.98,40.32,68.93h0Zm-1.57,0c-.46-35.85-32.85-61.56-67.31-60.26-32.47.6-61.45,27.19-61.82,60.26-.74,45.35,44.64,75.63,86.76,60.2,25.16-8.76,43.13-33.28,42.37-60.2h0Z"/>
  <path class="cls-2" d="m510.31,175.41c-.92,49.81-49.05,85.63-96.68,67.13-27.27-10.22-46.36-37.99-46.55-67.13-1.1-53.74,53.37-92.56,102.91-68.93,25.72,12.53,41,40.98,40.32,68.93h0Zm-1.57,0c-.46-35.85-32.85-61.56-67.31-60.26-32.47.6-61.45,27.19-61.82,60.26-.74,45.35,44.64,75.63,86.76,60.2,25.16-8.76,43.13-33.28,42.37-60.2h0Z"/>
  <path class="cls-2" d="m143.24,318.27c-.92,49.81-49.05,85.63-96.68,67.13C19.29,375.17.21,347.4.02,318.27c-1.1-53.74,53.37-92.56,102.91-68.93,25.72,12.53,41,40.98,40.32,68.93h0Zm-1.57,0c-.46-35.85-32.85-61.56-67.31-60.26-32.47.6-61.45,27.19-61.82,60.26-.74,45.35,44.64,75.63,86.76,60.2,25.16-8.76,43.13-33.28,42.37-60.2h0Z"/>
  <g>
    <path class="cls-1" d="m292.67,389.93c-.4-3.6,3.8-56.08-54.32-83.63-47.4-22.47-91.49-1.76-97.92,1.4"/>
    <path class="cls-2" d="m292.67,389.93c-.34-21.57-7.93-42.74-22.3-58.69-20.19-21.99-50.13-34.38-79.92-34.17-17.14.09-34.28,3.74-50.02,10.63,30.76-15.92,69.43-17.54,100.58-1.59,32.93,15.91,53.36,46.89,51.66,83.83h0Z"/>
  </g>
  <g>
    <path class="cls-1" d="m106.53,290.35c7.14-1.95,55.56-13.68,78.53-67.09,16.29-37.88,1.24-78.19-1.85-88.85"/>
    <path class="cls-2" d="m106.53,290.35c32.61-9.31,60.89-32.27,75.31-63.12,14.51-29.44,10.52-62.32,1.38-92.82,5.59,15.55,9.76,31.77,10.24,48.4,2.45,51.1-37.98,96.99-86.92,107.54h0Z"/>
  </g>
  <g>
    <path class="cls-1" d="m197,101.07c.55,7.1,5.05,54.98,47.43,83.79,38.51,26.18,92.63,25.96,135.61-1.12"/>
    <path class="cls-2" d="m197,101.07c4.29,37.7,25.76,73.05,60.42,89.79,38.52,19.39,86.05,14.66,122.62-7.13-33.87,22.55-78.99,28.64-116.83,12.67-39.19-15.89-63.52-53.78-66.22-95.34h0Z"/>
  </g>
  <path class="cls-2" d="m411.14,199.61c-27.55,3.03-54.57,13.94-75.08,32.79-36.17,32.6-45.3,81.77-29.58,127.06-7.12-17.31-10.34-36.25-8.99-54.96,4.08-59.38,55.73-102.37,113.65-104.89h0Z"/>
</svg>